<svg width="185" height="36" viewBox="0 0 185 36" fill="none" xmlns="http://www.w3.org/2000/svg">
<path d="M41.6477 13.3636V9.54545H56.8182V13.3636H51.5682V27H46.8977V13.3636H41.6477ZM60.5362 27.2045C59.701 27.2045 58.9624 27.0682 58.3203 26.7955C57.6839 26.517 57.1839 26.0966 56.8203 25.5341C56.4567 24.9716 56.2749 24.2557 56.2749 23.3864C56.2749 22.6705 56.397 22.0597 56.6413 21.554C56.8857 21.0426 57.2266 20.625 57.6641 20.3011C58.1016 19.9773 58.6101 19.7301 59.1896 19.5597C59.7749 19.3892 60.4055 19.2784 61.0817 19.2273C61.8146 19.1705 62.4027 19.1023 62.8459 19.0227C63.2947 18.9375 63.6186 18.821 63.8175 18.6733C64.0163 18.5199 64.1158 18.3182 64.1158 18.0682V18.0341C64.1158 17.6932 63.9851 17.4318 63.7237 17.25C63.4624 17.0682 63.1271 16.9773 62.718 16.9773C62.2692 16.9773 61.9027 17.0767 61.6186 17.2756C61.3402 17.4687 61.1726 17.767 61.1158 18.1705H56.7862C56.843 17.375 57.0959 16.642 57.5447 15.9716C57.9993 15.2955 58.6612 14.7557 59.5305 14.3523C60.3999 13.9432 61.4851 13.7386 62.7862 13.7386C63.7237 13.7386 64.5646 13.8494 65.3089 14.071C66.0533 14.2869 66.6868 14.5909 67.2095 14.983C67.7322 15.3693 68.13 15.8239 68.4027 16.3466C68.6811 16.8636 68.8203 17.4261 68.8203 18.0341V27H64.4226V25.1591H64.3203C64.0589 25.6477 63.7408 26.0426 63.3658 26.3438C62.9964 26.6449 62.5732 26.8636 62.0959 27C61.6243 27.1364 61.1044 27.2045 60.5362 27.2045ZM62.0703 24.2386C62.4283 24.2386 62.7635 24.1648 63.076 24.017C63.3942 23.8693 63.6527 23.6562 63.8516 23.3778C64.0504 23.0994 64.1499 22.7614 64.1499 22.3636V21.2727C64.0249 21.3239 63.8913 21.3722 63.7493 21.4176C63.6129 21.4631 63.4652 21.5057 63.3061 21.5455C63.1527 21.5852 62.9879 21.6222 62.8118 21.6562C62.6413 21.6903 62.4624 21.7216 62.2749 21.75C61.9112 21.8068 61.6129 21.9006 61.38 22.0312C61.1527 22.1562 60.9822 22.3125 60.8686 22.5C60.7607 22.6818 60.7067 22.8864 60.7067 23.1136C60.7067 23.4773 60.8345 23.7557 61.0902 23.9489C61.3459 24.142 61.6726 24.2386 62.0703 24.2386ZM71.0682 31.9091V13.9091H75.7386V16.1932H75.8409C76.0114 15.75 76.2614 15.3437 76.5909 14.9744C76.9205 14.5994 77.3295 14.3011 77.8182 14.0795C78.3068 13.8523 78.875 13.7386 79.5227 13.7386C80.3864 13.7386 81.2074 13.9688 81.9858 14.429C82.7699 14.8892 83.4063 15.6136 83.8949 16.6023C84.3892 17.5909 84.6364 18.875 84.6364 20.4545C84.6364 21.9659 84.4006 23.2187 83.929 24.2131C83.4631 25.2074 82.8381 25.9489 82.054 26.4375C81.2756 26.9261 80.4205 27.1705 79.4886 27.1705C78.875 27.1705 78.3267 27.071 77.8438 26.8722C77.3665 26.6676 76.9574 26.392 76.6165 26.0455C76.2813 25.6932 76.0227 25.2955 75.8409 24.8523H75.7727V31.9091H71.0682ZM75.6705 20.4545C75.6705 21.0909 75.7528 21.642 75.9176 22.108C76.0881 22.5682 76.3267 22.9261 76.6335 23.1818C76.946 23.4318 77.3182 23.5568 77.75 23.5568C78.1818 23.5568 78.5483 23.4347 78.8494 23.1903C79.1563 22.9403 79.3892 22.5852 79.5483 22.125C79.7131 21.6591 79.7955 21.1023 79.7955 20.4545C79.7955 19.8068 79.7131 19.2528 79.5483 18.7926C79.3892 18.3267 79.1563 17.9716 78.8494 17.7273C78.5483 17.4773 78.1818 17.3523 77.75 17.3523C77.3182 17.3523 76.946 17.4773 76.6335 17.7273C76.3267 17.9716 76.0881 18.3267 75.9176 18.7926C75.7528 19.2528 75.6705 19.8068 75.6705 20.4545ZM86.5391 27V9.54545H98.8118V13.3636H91.2777V16.3636H98.0618V20.1818H91.2777V27H86.5391ZM105.969 27.2386C104.548 27.2386 103.332 26.9574 102.321 26.3949C101.31 25.8267 100.534 25.0369 99.9943 24.0256C99.4545 23.0085 99.1847 21.8295 99.1847 20.4886C99.1847 19.1477 99.4545 17.9716 99.9943 16.9602C100.534 15.9432 101.31 15.1534 102.321 14.5909C103.332 14.0227 104.548 13.7386 105.969 13.7386C107.389 13.7386 108.605 14.0227 109.616 14.5909C110.628 15.1534 111.403 15.9432 111.943 16.9602C112.483 17.9716 112.753 19.1477 112.753 20.4886C112.753 21.8295 112.483 23.0085 111.943 24.0256C111.403 25.0369 110.628 25.8267 109.616 26.3949C108.605 26.9574 107.389 27.2386 105.969 27.2386ZM106.003 23.7614C106.401 23.7614 106.744 23.6278 107.034 23.3608C107.324 23.0937 107.548 22.7131 107.707 22.2188C107.866 21.7244 107.946 21.1364 107.946 20.4545C107.946 19.767 107.866 19.179 107.707 18.6903C107.548 18.196 107.324 17.8153 107.034 17.5483C106.744 17.2812 106.401 17.1477 106.003 17.1477C105.582 17.1477 105.222 17.2812 104.92 17.5483C104.619 17.8153 104.389 18.196 104.23 18.6903C104.071 19.179 103.991 19.767 103.991 20.4545C103.991 21.1364 104.071 21.7244 104.23 22.2188C104.389 22.7131 104.619 23.0937 104.92 23.3608C105.222 23.6278 105.582 23.7614 106.003 23.7614ZM114.662 27V13.9091H119.23V16.3977H119.366C119.605 15.4773 119.983 14.804 120.5 14.3778C121.023 13.9517 121.634 13.7386 122.332 13.7386C122.537 13.7386 122.739 13.7557 122.938 13.7898C123.142 13.8182 123.338 13.8608 123.526 13.9176V17.9318C123.293 17.8523 123.006 17.7926 122.665 17.7528C122.324 17.7131 122.031 17.6932 121.787 17.6932C121.327 17.6932 120.912 17.7983 120.543 18.0085C120.179 18.2131 119.892 18.5028 119.682 18.8778C119.472 19.2472 119.366 19.6818 119.366 20.1818V27H114.662ZM127.597 27L124.325 13.9091H129.029L130.529 21.8864H130.631L132.302 13.9091H136.87L138.609 21.8182H138.711L140.143 13.9091H144.847L141.575 27H136.495L134.654 19.9773H134.518L132.677 27H127.597ZM149.927 27.2045C149.092 27.2045 148.353 27.0682 147.711 26.7955C147.075 26.517 146.575 26.0966 146.211 25.5341C145.847 24.9716 145.665 24.2557 145.665 23.3864C145.665 22.6705 145.788 22.0597 146.032 21.554C146.276 21.0426 146.617 20.625 147.055 20.3011C147.492 19.9773 148.001 19.7301 148.58 19.5597C149.165 19.3892 149.796 19.2784 150.472 19.2273C151.205 19.1705 151.793 19.1023 152.237 19.0227C152.685 18.9375 153.009 18.821 153.208 18.6733C153.407 18.5199 153.506 18.3182 153.506 18.0682V18.0341C153.506 17.6932 153.376 17.4318 153.114 17.25C152.853 17.0682 152.518 16.9773 152.109 16.9773C151.66 16.9773 151.293 17.0767 151.009 17.2756C150.731 17.4687 150.563 17.767 150.506 18.1705H146.177C146.234 17.375 146.487 16.642 146.935 15.9716C147.39 15.2955 148.052 14.7557 148.921 14.3523C149.79 13.9432 150.876 13.7386 152.177 13.7386C153.114 13.7386 153.955 13.8494 154.7 14.071C155.444 14.2869 156.077 14.5909 156.6 14.983C157.123 15.3693 157.521 15.8239 157.793 16.3466C158.072 16.8636 158.211 17.4261 158.211 18.0341V27H153.813V25.1591H153.711C153.45 25.6477 153.131 26.0426 152.756 26.3438C152.387 26.6449 151.964 26.8636 151.487 27C151.015 27.1364 150.495 27.2045 149.927 27.2045ZM151.461 24.2386C151.819 24.2386 152.154 24.1648 152.467 24.017C152.785 23.8693 153.043 23.6562 153.242 23.3778C153.441 23.0994 153.54 22.7614 153.54 22.3636V21.2727C153.415 21.3239 153.282 21.3722 153.14 21.4176C153.004 21.4631 152.856 21.5057 152.697 21.5455C152.543 21.5852 152.379 21.6222 152.202 21.6562C152.032 21.6903 151.853 21.7216 151.665 21.75C151.302 21.8068 151.004 21.9006 150.771 22.0312C150.543 22.1562 150.373 22.3125 150.259 22.5C150.151 22.6818 150.097 22.8864 150.097 23.1136C150.097 23.4773 150.225 23.7557 150.481 23.9489C150.737 24.142 151.063 24.2386 151.461 24.2386ZM160.459 27V13.9091H165.027V16.3977H165.163C165.402 15.4773 165.78 14.804 166.297 14.3778C166.82 13.9517 167.43 13.7386 168.129 13.7386C168.334 13.7386 168.536 13.7557 168.734 13.7898C168.939 13.8182 169.135 13.8608 169.322 13.9176V17.9318C169.089 17.8523 168.803 17.7926 168.462 17.7528C168.121 17.7131 167.828 17.6932 167.584 17.6932C167.124 17.6932 166.709 17.7983 166.339 18.0085C165.976 18.2131 165.689 18.5028 165.479 18.8778C165.268 19.2472 165.163 19.6818 165.163 20.1818V27H160.459ZM174.854 27.1705C173.922 27.1705 173.064 26.9261 172.28 26.4375C171.501 25.9489 170.876 25.2074 170.405 24.2131C169.939 23.2187 169.706 21.9659 169.706 20.4545C169.706 18.875 169.95 17.5909 170.439 16.6023C170.933 15.6136 171.57 14.8892 172.348 14.429C173.132 13.9688 173.956 13.7386 174.82 13.7386C175.467 13.7386 176.036 13.8523 176.524 14.0795C177.013 14.3011 177.422 14.5994 177.751 14.9744C178.081 15.3437 178.331 15.75 178.501 16.1932H178.57V9.54545H183.274V27H178.604V24.8523H178.501C178.32 25.2955 178.058 25.6932 177.717 26.0455C177.382 26.392 176.973 26.6676 176.49 26.8722C176.013 27.071 175.467 27.1705 174.854 27.1705ZM176.592 23.5568C177.024 23.5568 177.393 23.4318 177.7 23.1818C178.013 22.9261 178.251 22.5682 178.416 22.108C178.587 21.642 178.672 21.0909 178.672 20.4545C178.672 19.8068 178.587 19.2528 178.416 18.7926C178.251 18.3267 178.013 17.9716 177.7 17.7273C177.393 17.4773 177.024 17.3523 176.592 17.3523C176.161 17.3523 175.791 17.4773 175.484 17.7273C175.183 17.9716 174.95 18.3267 174.786 18.7926C174.626 19.2528 174.547 19.8068 174.547 20.4545C174.547 21.1023 174.626 21.6591 174.786 22.125C174.95 22.5852 175.183 22.9403 175.484 23.1903C175.791 23.4347 176.161 23.5568 176.592 23.5568Z" fill="url(#paint0_linear_6_15)"/>
<path d="M18.0002 0C13.2263 0 8.64785 1.89648 5.27215 5.27222C1.89645 8.64797 0 13.2265 0 18.0005C0 27.9421 8.05921 36 18.0002 36C20.364 36 22.7046 35.5344 24.8885 34.6298C27.0723 33.7253 29.0566 32.3994 30.728 30.7279C32.3994 29.0565 33.7253 27.0722 34.6299 24.8883C35.5344 22.7044 36 20.3638 36 18C36 15.6362 35.5344 13.2956 34.6299 11.1117C33.7253 8.92784 32.3994 6.94353 30.728 5.27208C29.0566 3.60062 27.0723 2.27475 24.8885 1.37017C22.7046 0.465584 20.364 -3.52233e-08 18.0002 0ZM8.80538 11.4587H27.1956L27.1964 11.4617L18.0002 17.1962L8.80449 11.4615L8.80538 11.4587ZM28.7832 23.5722C28.7832 24.0837 28.5799 24.5742 28.2183 24.9359C27.8566 25.2976 27.366 25.5008 26.8545 25.5009H9.14517C8.6337 25.5007 8.14321 25.2975 7.78154 24.9358C7.41987 24.5741 7.21663 24.0837 7.2165 23.5722V13.3874C7.21735 13.2768 7.22753 13.1664 7.24693 13.0574L17.4236 19.4037C17.4367 19.4116 17.4497 19.4168 17.4627 19.4246C17.4758 19.4315 17.4896 19.4384 17.5036 19.4454C17.574 19.4821 17.6483 19.5109 17.7251 19.5314C17.7329 19.5332 17.7406 19.5357 17.7484 19.5374C17.8306 19.5573 17.9149 19.5678 17.9995 19.5687H18.0011C18.0858 19.5678 18.1702 19.5573 18.2525 19.5374C18.2599 19.5357 18.2677 19.5332 18.2756 19.5315C18.3525 19.5107 18.427 19.4818 18.4979 19.4455C18.511 19.4386 18.5248 19.4317 18.5382 19.4246C18.5509 19.4168 18.5647 19.4115 18.577 19.4037L28.7529 13.0574C28.7727 13.1663 28.7828 13.2768 28.7832 13.3874V23.5722Z" fill="url(#paint1_linear_6_15)"/>
<defs>
<linearGradient id="paint0_linear_6_15" x1="24.5" y1="33" x2="255" y2="-1.49999" gradientUnits="userSpaceOnUse">
<stop stop-color="#DC2626"/>
<stop offset="0.33" stop-color="#F97316"/>
<stop offset="1" stop-color="#2563EB"/>
</linearGradient>
<linearGradient id="paint1_linear_6_15" x1="7.90438" y1="4.64389" x2="31.3709" y2="31.2224" gradientUnits="userSpaceOnUse">
<stop stop-color="#FF2D20"/>
<stop offset="0.5" stop-color="#FFAD27"/>
<stop offset="1" stop-color="#2196F3"/>
</linearGradient>
</defs>
</svg>
